#!OML:ASF I:\Actors\actors\Patient Classification 1\Patient 1\Session 1\Subject1.ASF
:FULLY-SPECIFIED
:DEGREES
1831
root 0.339899 17.5608 9.16766 13.2859 -2.61208 -11.4913
lowerback 5.82967 1.47382 3.38928
upperback -6.43824 2.34216 -0.0898549
thorax -9.99195 0.886598 -2.33017
lowerneck -16.5756 -2.22613 1.1709
upperneck 21.0047 -6.02778 10.6679
head 9.76144 -1.50506 2.72155
rclavicle -1.03368e-014 -1.59028e-014
rhumerus 52.1464 37.4898 -30.294
rradius 70.5096
rwrist -23.3883
rhand 36.7044 -73.1326
rfingers 7.12502
rthumb 59.6117 -87.3141
lclavicle -1.03368e-014 -1.59028e-014
lhumerus 16.7233 -31.0895 70.7333
lradius 52.7513
lwrist 17.8772
lhand -37.9272 -25.8463
lfingers 7.12502
lthumb -10.969 3.84714
rfemur -12.2786 18.9425 27.6031
rtibia 6.99432
rfoot -10.318 -17.887
rtoes -1.10922
lfemur 3.71405 -57.0936 -7.39625
ltibia -4.60852
lfoot -48.1329 61.7474
ltoes 25.6995
1832
root 0.339954 17.5618 9.17472 13.2594 -2.04172 -11.5539
lowerback 5.88452 1.30465 3.4117
upperback -6.41214 2.13319 0.0791928
thorax -10.015 0.790521 -2.13447
lowerneck -16.7532 -2.25651 1.00425
upperneck 21.0888 -6.03685 10.6397
head 9.82767 -1.51619 2.73937
rclavicle -1.19271e-014 -2.06736e-014
rhumerus 50.9713 37.0415 -31.7772
rradius 71.5239
rwrist -23.5472
rhand 36.8847 -73.4171
rfingers 7.12502
rthumb 59.7664 -87.4403
lclavicle -1.19271e-014 -2.06736e-014
lhumerus 16.6919 -31.0905 70.8465
lradius 52.8484
lwrist 17.9721
lhand -37.9972 -25.957
lfingers 7.12502
lthumb -11.0365 3.73283
rfemur -12.1629 18.8099 27.7232
rtibia 6.85983
rfoot -10.3338 -18.2789
rtoes -0.994555
lfemur 3.32249 -57.1733 -6.94206
ltibia -4.56225
lfoot -47.1095 61.6331
ltoes 25.2847
1833
root 0.341114 17.5623 9.1818 13.19 -1.45307 -11.6145
lowerback 5.95862 1.12119 3.48375
upperback -6.3774 1.90988 0.236786
thorax -10.0381 0.683458 -1.97672
lowerneck -16.8918 -2.24971 0.90372
upperneck 21.1622 -6.00368 10.5954
head 9.87825 -1.50607 2.74618
rclavicle 7.40473e-015 -1.59028e-014
rhumerus 49.9686 36.638 -32.8502
rradius 72.5438
rwrist -23.4323
rhand 36.9631 -73.6364
rfingers 7.12502
rthumb 59.8336 -87.5902
lclavicle 7.40473e-015 -1.59028e-014
lhumerus 16.6591 -31.0622 70.9581
lradius 52.8843
lwrist 18.1007
lhand -38.1395 -26.0691
lfingers 7.12502
lthumb -11.1738 3.61333
rfemur -12 18.7078 27.8475
rtibia 6.72408
rfoot -10.3803 -18.7057
rtoes -0.757795
lfemur 2.8941 -56.9692 -6.45303
ltibia -4.54932
lfoot -45.1423 61.5205
ltoes 24.2243
1834
root 0.34266 17.5627 9.18951 13.0832 -0.861257 -11.5952
lowerback 6.03564 0.920458 3.50142
upperback -6.36946 1.65537 0.361432
thorax -10.0939 0.562855 -1.81907
lowerneck -16.8937 -2.21607 0.833866
upperneck 21.2566 -5.94603 10.5878
head 9.90985 -1.48161 2.76517
rclavicle 1.34677e-014 1.43125e-014
rhumerus 49.1948 36.3742 -33.5332
rradius 73.5277
rwrist -23.3229
rhand 36.8592 -73.7595
rfingers 7.12502
rthumb 59.7446 -87.8052
lclavicle 1.34677e-014 1.43125e-014
lhumerus 16.4992 -31.0166 71.1015
lradius 52.8904
lwrist 18.219
lhand -38.1493 -25.9611
lfingers 7.12502
lthumb -11.1832 3.72082
rfemur -11.8213 18.6165 27.8778
rtibia 6.63644
rfoot -10.5067 -19.1578
rtoes -0.189699
lfemur 2.53011 -56.7898 -6.11186
ltibia -4.54813
lfoot -43.1518 61.4042
ltoes 23.1401
1835
root 0.343431 17.5642 9.19372 12.9848 -0.390014 -11.5952
lowerback 6.12638 0.734007 3.51477
upperback -6.3383 1.41877 0.476401
thorax -10.1299 0.451595 -1.67116
lowerneck -17.0415 -2.17019 0.782985
upperneck 21.4158 -5.89195 10.5841
head 9.99259 -1.44933 2.78291
rclavicle 4.47266e-016 -9.54166e-015
rhumerus 48.6534 36.176 -34.1264
rradius 74.2486
rwrist -23.0656
rhand 36.8496 -73.7481
rfingers 7.12502
rthumb 59.7363 -87.8022
lclavicle 4.47266e-016 -9.54166e-015
lhumerus 16.3675 -30.8203 71.2221
lradius 52.8567
lwrist 18.1634
lhand -37.9282 -25.5752
lfingers 7.12502
lthumb -10.97 4.11817
rfemur -11.7293 18.4863 27.923
rtibia 6.6658
rfoot -10.6387 -19.4494
rtoes 0.415103
lfemur 2.21919 -56.5765 -5.7943
ltibia -4.56602
lfoot -41.6856 61.1806
ltoes 22.4246
1836
root 0.346617 17.5645 9.19011 13.041 -0.178527 -11.6621
lowerback 6.18246 0.643296 3.64799
upperback -6.37546 1.31855 0.519865
thorax -10.21 0.392987 -1.68601
lowerneck -17.1902 -2.16833 0.741227
upperneck 21.6093 -5.9178 10.6242
head 10.0947 -1.44676 2.80444
rclavicle -1.12313e-014 -1.43125e-014
rhumerus 47.9662 36.0164 -35.2719
rradius 74.3158
rwrist -22.5457
rhand 37.1519 -73.7803
rfingers 7.12502
rthumb 59.9952 -87.5657
lclavicle -1.12313e-014 -1.43125e-014
lhumerus 16.2839 -30.6647 71.2788
lradius 52.764
lwrist 18.0689
lhand -37.6592 -25.4243
lfingers 7.12502
lthumb -10.7105 4.2827
rfemur -11.9292 18.419 27.9645
rtibia 6.85781
rfoot -10.7266 -19.5207
rtoes 0.675722
lfemur 1.68702 -56.1432 -5.25183
ltibia -4.56952
lfoot -40.5884 60.8914
ltoes 22.0449
1837
root 0.354181 17.5619 9.18594 13.2056 -0.206739 -11.722
lowerback 6.13501 0.657245 3.85197
upperback -6.47613 1.35769 0.488292
thorax -10.2884 0.392603 -1.83966
lowerneck -17.2198 -2.22248 0.681212
upperneck 21.7817 -6.02706 10.7311
head 10.1753 -1.48122 2.84116
rclavicle -3.08116e-015 2.22639e-014
rhumerus 47.3363 35.9718 -36.5202
rradius 73.879
rwrist -22.3297
rhand 37.4102 -73.9974
rfingers 7.12502
rthumb 60.2159 -87.5491
lclavicle -3.08116e-015 2.22639e-014
lhumerus 16.1736 -30.6402 71.3379
lradius 52.664
lwrist 18.0738
lhand -37.5532 -25.5487
lfingers 7.12502
lthumb -10.6083 4.16349
rfemur -12.2878 18.3408 27.9303
rtibia 7.09998
rfoot -10.747 -19.3632
rtoes 0.798669
lfemur 1.14622 -55.7129 -4.77357
ltibia -4.52924
lfoot -39.9515 60.6946
ltoes 21.8959
